<?xml version="1.0" encoding="UTF-8"?>
<!DOCTYPE svg PUBLIC "-//W3C//DTD SVG 1.1//EN" "http://www.w3.org/Graphics/SVG/1.1/DTD/svg11.dtd">
<!-- Creator: CorelDRAW X7 -->
<svg xmlns="http://www.w3.org/2000/svg" xml:space="preserve" width="41.2mm" height="8mm" version="1.1" style="shape-rendering:geometricPrecision; text-rendering:geometricPrecision; image-rendering:optimizeQuality; fill-rule:evenodd; clip-rule:evenodd"
viewBox="0 0 4120 800"
 xmlns:xlink="http://www.w3.org/1999/xlink">
 <defs>
  <style type="text/css">
   <![CDATA[
    .fil0 {fill:#333333;fill-rule:nonzero}
    .fil2 {fill:url(#id0)}
    .fil3 {fill:url(#id1)}
    .fil4 {fill:url(#id2)}
    .fil1 {fill:url(#id3);fill-rule:nonzero}
   ]]>
  </style>
  <linearGradient id="id0" gradientUnits="userSpaceOnUse" x1="651.76" y1="89.33" x2="140.88" y2="710.67">
   <stop offset="0" style="stop-opacity:1; stop-color:#C065F5"/>
   <stop offset="0.411765" style="stop-opacity:1; stop-color:#9336AB"/>
   <stop offset="1" style="stop-opacity:1; stop-color:#660660"/>
  </linearGradient>
  <linearGradient id="id1" gradientUnits="userSpaceOnUse" x1="290.83" y1="127.38" x2="461.51" y2="672.62">
   <stop offset="0" style="stop-opacity:1; stop-color:#C065F5"/>
   <stop offset="0.25098" style="stop-opacity:1; stop-color:#9336AB"/>
   <stop offset="1" style="stop-opacity:1; stop-color:#660660"/>
  </linearGradient>
  <linearGradient id="id2" gradientUnits="userSpaceOnUse" xlink:href="#id1" x1="345.18" y1="236.65" x2="447.46" y2="563.35">
  </linearGradient>
  <linearGradient id="id3" gradientUnits="objectBoundingBox" x1="45.1735%" y1="0%" x2="54.8265%" y2="166.244%">
   <stop offset="0" style="stop-opacity:1; stop-color:#CE89F5"/>
   <stop offset="0.6" style="stop-opacity:1; stop-color:#9A469D"/>
   <stop offset="1" style="stop-opacity:1; stop-color:#660245"/>
  </linearGradient>
 </defs>
 <g id="Layer_x0020_1">
  <metadata id="CorelCorpID_0Corel-Layer"/>
  <g id="_2809663997584">
   <path class="fil0" d="M1187 206c14,0 30,2 47,7 17,5 33,12 48,21l1 0 -1 -24 43 0 -6 131 -38 0c-3,-31 -12,-55 -27,-72 -15,-16 -36,-25 -62,-25 -20,0 -37,5 -53,14 -15,9 -28,21 -38,37 -11,15 -19,33 -25,52 -6,20 -9,40 -10,60 -2,32 2,61 10,87 8,25 20,45 37,60 18,14 39,22 64,22 23,1 46,-5 71,-16 24,-11 46,-29 65,-54l22 23c-20,25 -40,44 -61,57 -21,13 -41,22 -60,26 -20,5 -38,7 -53,7 -29,0 -55,-5 -79,-15 -23,-11 -42,-25 -59,-43 -16,-19 -28,-40 -36,-64 -8,-24 -11,-51 -9,-79 1,-25 7,-51 16,-76 10,-25 24,-48 41,-69 18,-20 39,-36 64,-49 26,-12 55,-18 88,-18z"/>
   <path id="1" class="fil0" d="M1503 322c21,0 40,5 58,14 17,10 30,24 40,43 11,19 16,42 16,69 0,29 -6,57 -18,83 -11,26 -27,46 -48,62 -21,15 -47,23 -76,23 -25,0 -46,-5 -63,-17 -17,-11 -30,-27 -38,-46 -8,-20 -12,-42 -12,-65 0,-30 5,-58 17,-83 11,-25 28,-45 49,-60 21,-16 46,-23 75,-23zm-8 37c-12,0 -21,5 -30,15 -8,10 -15,24 -20,41 -4,18 -7,37 -7,57 0,12 1,23 2,36 2,12 4,24 8,35 3,10 8,19 14,26 6,7 13,10 22,10 10,0 18,-4 25,-11 7,-8 12,-17 17,-29 4,-12 7,-25 9,-38 2,-13 3,-25 4,-37 0,-10 0,-21 -1,-33 -1,-12 -4,-24 -7,-35 -3,-11 -7,-20 -13,-27 -6,-7 -14,-10 -23,-10z"/>
   <path id="2" class="fil0" d="M1892 616c-21,0 -35,-5 -42,-17 -7,-11 -11,-27 -11,-46 0,-12 1,-24 2,-39 2,-14 3,-28 5,-43 2,-14 3,-28 5,-41 1,-13 2,-24 2,-33 0,-5 0,-10 -2,-14 -1,-3 -2,-6 -5,-7 -2,-2 -5,-2 -9,-2 -6,0 -13,4 -21,12 -7,8 -14,19 -21,34 -7,14 -13,29 -18,46 -5,18 -10,35 -13,53 -3,18 -5,35 -5,50 0,5 1,12 1,21 0,9 1,16 1,20l-73 0c0,-8 -1,-13 -1,-17 0,-3 0,-6 0,-10 0,-8 0,-17 1,-28 1,-11 2,-22 4,-35 1,-13 3,-25 4,-37 1,-11 3,-21 4,-30 1,-10 2,-19 4,-27 1,-9 2,-16 2,-23 1,-6 1,-11 1,-14 0,-7 -1,-11 -3,-12 -1,-2 -3,-3 -5,-3 -4,0 -8,3 -13,10 -4,6 -9,18 -14,35l-31 -9c2,-8 4,-17 8,-27 3,-11 8,-20 14,-29 6,-10 13,-17 22,-23 9,-6 19,-9 32,-9 8,0 16,1 23,4 7,3 13,8 17,16 5,7 7,17 7,31 0,7 0,13 -1,18 -1,4 -2,9 -2,16l0 0c9,-23 19,-40 30,-53 11,-12 22,-21 33,-25 12,-5 23,-7 34,-7 16,0 29,3 39,10 9,8 17,18 21,31 5,13 7,28 7,46 0,13 -1,28 -3,45 -2,16 -5,33 -7,49 -2,17 -4,32 -4,46 0,6 1,10 3,12 2,2 4,3 6,3 4,0 8,-3 13,-10 4,-6 9,-18 14,-35l30 9c-1,8 -4,17 -8,27 -5,10 -10,20 -18,29 -7,10 -15,17 -25,23 -10,6 -21,9 -34,9z"/>
   <path id="3" class="fil0" d="M2236 616c-20,0 -34,-5 -42,-17 -7,-11 -11,-27 -11,-46 0,-12 1,-24 3,-39 1,-14 3,-28 4,-43 2,-14 4,-28 5,-41 2,-13 2,-24 2,-33 0,-5 0,-10 -1,-14 -1,-3 -3,-6 -5,-7 -3,-2 -6,-2 -9,-2 -7,0 -14,4 -21,12 -8,8 -15,19 -22,34 -6,14 -12,29 -18,46 -5,18 -9,35 -12,53 -4,18 -5,35 -5,50 0,5 0,12 0,21 1,9 1,16 1,20l-72 0c-1,-8 -2,-13 -2,-17 0,-3 0,-6 0,-10 0,-8 0,-17 1,-28 1,-11 3,-22 4,-35 2,-13 3,-25 5,-37 1,-11 2,-21 3,-30 2,-10 3,-19 4,-27 1,-9 2,-16 2,-23 1,-6 1,-11 1,-14 0,-7 -1,-11 -2,-12 -2,-2 -4,-3 -6,-3 -4,0 -8,3 -13,10 -4,6 -9,18 -14,35l-31 -9c2,-8 5,-17 8,-27 4,-11 8,-20 14,-29 6,-10 14,-17 22,-23 9,-6 19,-9 32,-9 8,0 16,1 23,4 7,3 13,8 18,16 4,7 6,17 6,31 0,7 0,13 -1,18 -1,4 -1,9 -2,16l0 0c10,-23 19,-40 30,-53 11,-12 22,-21 33,-25 12,-5 23,-7 34,-7 16,0 29,3 39,10 10,8 17,18 22,31 4,13 7,28 7,46 0,13 -1,28 -4,45 -2,16 -4,33 -7,49 -2,17 -3,32 -3,46 0,6 1,10 2,12 2,2 4,3 6,3 4,0 9,-3 13,-10 5,-6 9,-18 14,-35l31 9c-2,8 -5,17 -9,27 -4,10 -10,20 -17,29 -7,10 -16,17 -26,23 -9,6 -21,9 -34,9z"/>
   <path id="4" class="fil0" d="M2483 322c17,0 31,2 44,7 13,5 23,13 30,23 7,11 11,24 11,41 0,15 -5,28 -14,39 -9,11 -21,19 -36,26 -15,7 -31,13 -49,17 -18,4 -35,8 -51,10 0,21 2,38 7,49 5,12 12,20 20,24 8,4 16,6 23,6 7,0 14,-1 23,-3 9,-3 18,-8 27,-16 9,-8 17,-19 24,-35l31 15c-10,25 -22,44 -35,57 -13,13 -27,22 -41,27 -15,5 -29,7 -44,7 -34,1 -62,-9 -82,-30 -21,-20 -31,-51 -31,-93 0,-18 3,-37 9,-57 5,-20 14,-38 25,-56 12,-17 27,-31 45,-42 18,-11 39,-16 64,-16zm-6 37c-13,0 -23,4 -31,13 -8,9 -14,21 -18,35 -4,13 -7,27 -9,41 21,-4 37,-9 49,-15 12,-7 21,-14 26,-22 6,-8 8,-17 8,-26 -1,-10 -3,-16 -9,-20 -5,-4 -10,-6 -16,-6z"/>
   <path id="5" class="fil0" d="M2744 322c18,0 33,2 47,8 14,6 25,14 33,24 8,10 12,21 12,35 0,12 -3,21 -10,28 -7,7 -15,11 -26,11 -13,1 -22,-3 -27,-11 -6,-8 -8,-16 -8,-22 0,-3 0,-7 1,-12 1,-4 3,-8 4,-12 -1,-3 -4,-6 -9,-8 -5,-3 -11,-4 -18,-4 -12,0 -22,4 -29,12 -8,8 -14,18 -18,31 -5,12 -8,25 -10,39 -2,14 -3,26 -3,38 -1,20 1,36 6,49 4,12 10,21 18,27 7,5 15,9 23,9 7,1 15,0 24,-3 9,-2 18,-8 28,-16 9,-9 18,-22 25,-39l32 15c-10,25 -22,44 -35,58 -13,14 -27,24 -42,29 -15,6 -30,8 -46,8 -33,0 -60,-10 -80,-30 -20,-20 -30,-51 -30,-93 0,-18 2,-37 8,-57 6,-20 14,-38 26,-56 11,-17 26,-31 43,-42 17,-11 38,-16 61,-16z"/>
   <path id="6" class="fil0" d="M2997 243l-12 85 71 0 -3 39 -71 1c-1,13 -3,28 -5,44 -2,15 -3,31 -5,45 -1,15 -2,29 -3,40 -1,12 -2,21 -2,28 0,5 1,10 2,16 1,6 4,11 7,15 4,4 10,6 18,6 4,0 8,-1 14,-2 6,-2 12,-5 19,-10 6,-5 13,-13 18,-23l29 18c-13,24 -28,42 -47,54 -18,11 -38,17 -59,17 -21,0 -36,-4 -47,-13 -10,-8 -17,-20 -20,-34 -4,-14 -5,-29 -5,-44 1,-13 2,-28 3,-46 1,-17 3,-36 5,-55 1,-19 3,-38 5,-56l-45 1 5 -41c28,0 49,-7 62,-22 13,-15 23,-36 28,-63l38 0z"/>
   <path id="7" class="fil1" d="M3509 215l-1 37c-9,1 -16,2 -22,4 -6,1 -11,6 -15,12 -3,7 -6,18 -6,33l-12 217c0,10 -1,19 -2,29 -1,9 -2,16 -3,21 7,0 14,-1 23,-1 9,0 16,0 20,0l-3 43 -160 0 2 -37c8,-1 16,-2 22,-4 6,-1 11,-6 14,-13 4,-6 6,-17 7,-32l5 -92 -156 2 -5 84c0,10 -1,19 -2,29 0,9 -1,16 -2,21 6,0 14,-1 23,-1 9,0 16,0 19,0l-2 43 -161 0 2 -37c9,-1 16,-2 22,-4 6,-1 11,-6 14,-13 4,-6 6,-17 7,-32l11 -216c1,-11 2,-20 3,-30 1,-9 1,-16 2,-21 -6,0 -13,0 -22,1 -10,0 -16,0 -20,0l2 -43 160 0 -1 37c-9,1 -16,2 -22,4 -6,1 -11,6 -15,12 -3,7 -6,18 -6,33l-5 88 155 0 5 -81c1,-11 1,-20 2,-30 1,-9 2,-16 3,-21 -6,0 -14,0 -23,1 -9,0 -16,0 -20,0l2 -43 161 0z"/>
   <path id="8" class="fil1" d="M3632 616c-15,0 -28,-3 -38,-10 -10,-8 -18,-18 -22,-31 -5,-13 -7,-28 -7,-46 0,-14 1,-29 3,-45 3,-17 5,-33 8,-50 2,-17 3,-32 3,-45 0,-7 -1,-11 -3,-12 -2,-2 -4,-3 -6,-3 -4,0 -8,3 -13,10 -4,6 -9,18 -14,35l-30 -9c1,-8 4,-17 8,-27 5,-11 10,-20 18,-29 7,-10 15,-17 25,-23 10,-6 21,-9 34,-9 21,0 35,5 42,17 8,11 12,26 12,46 0,12 -1,24 -3,39 -1,14 -3,28 -5,43 -2,14 -3,28 -5,41 -1,13 -2,24 -2,33 0,5 0,10 2,13 1,4 2,7 5,8 2,2 5,2 9,2 6,0 13,-4 20,-12 7,-8 13,-20 20,-34 6,-14 12,-29 17,-46 5,-18 10,-35 13,-53 3,-18 5,-35 5,-51 0,-5 0,-12 -1,-20 0,-9 0,-16 -1,-20l73 0c1,8 1,13 1,17 0,3 1,6 1,10 0,8 -1,17 -2,28 -1,12 -2,24 -4,36 -1,13 -3,26 -5,39 -1,10 -2,20 -3,29 -2,9 -3,18 -4,26 -1,8 -2,16 -3,22 0,6 0,11 0,14 0,6 0,10 2,12 2,2 4,3 6,3 4,0 8,-3 13,-10 4,-6 9,-18 14,-35l30 9c-1,8 -4,17 -7,27 -4,10 -8,20 -14,29 -6,10 -14,17 -22,23 -9,6 -20,9 -32,9 -12,0 -23,-3 -33,-10 -9,-8 -14,-21 -14,-41 0,-8 0,-14 1,-19 1,-6 1,-11 1,-18l0 0c-9,23 -18,40 -28,53 -11,13 -21,22 -32,27 -11,6 -22,8 -33,8z"/>
   <path id="9" class="fil1" d="M3978 184c-2,11 -3,24 -5,39 -1,15 -3,30 -4,44 -1,14 -2,25 -3,32 0,4 -1,11 -2,22 -1,10 -2,21 -3,34 -2,12 -3,23 -5,33l0 0c7,-12 13,-23 21,-31 7,-9 14,-15 22,-20 7,-5 14,-9 21,-12 7,-2 14,-3 20,-3 19,0 35,5 46,15 12,10 21,23 26,40 6,16 9,34 9,52 0,26 -3,50 -9,72 -6,23 -14,43 -26,60 -12,17 -28,31 -48,41 -19,9 -43,14 -70,14 -6,0 -15,0 -25,-1 -11,-1 -22,-3 -34,-5 -11,-2 -22,-5 -32,-9 1,-30 3,-57 4,-82 1,-25 2,-49 3,-72 2,-23 3,-47 5,-71 1,-25 3,-52 5,-82 0,-6 1,-15 1,-25 1,-10 2,-19 3,-27 -6,0 -13,1 -21,1 -8,0 -14,0 -18,1l2 -43c18,0 32,-1 44,-3 12,-2 21,-4 28,-7 7,-2 12,-5 14,-7l31 0zm39 190c-7,0 -14,3 -21,10 -6,7 -13,17 -18,29 -6,13 -11,27 -15,44 -5,17 -8,35 -11,55 -2,20 -4,41 -4,62 3,1 7,3 13,4 6,1 11,1 14,1 13,0 23,-3 31,-10 8,-7 15,-17 20,-28 5,-12 9,-24 11,-38 3,-14 4,-27 5,-41 1,-13 1,-25 1,-35 0,-21 -2,-35 -8,-42 -5,-8 -11,-11 -18,-11z"/>
   <path class="fil2" d="M54 400c0,-189 153,-343 342,-343 190,0 343,154 343,343 0,189 -153,343 -343,343 -189,0 -342,-154 -342,-343zm342 -397c-219,0 -397,178 -397,397 0,219 178,397 397,397 220,0 397,-178 397,-397 0,-219 -177,-397 -397,-397z"/>
   <path class="fil3" d="M178 400c0,-121 98,-219 219,-219 77,0 145,40 184,100l60 -38c-52,-80 -142,-133 -244,-133 -160,0 -290,130 -290,290 0,160 130,290 290,290 105,0 197,-56 248,-140l-52 -52c-36,72 -110,121 -196,121 -121,0 -219,-98 -219,-219z"/>
   <path class="fil4" d="M279 400c0,-65 52,-118 117,-118 65,0 118,53 118,118 0,65 -53,118 -118,118 -65,0 -117,-53 -117,-118zm282 -44c-20,-76 -89,-127 -165,-127 -14,0 -29,2 -44,6 -76,21 -126,90 -126,165 0,15 1,29 5,44 21,76 90,127 165,127 15,0 30,-2 45,-6 76,-21 126,-90 126,-165 0,-15 -2,-29 -6,-44z"/>
  </g>
 </g>
</svg>
