<?xml version="1.0" encoding="UTF-8"?>
<!DOCTYPE svg PUBLIC "-//W3C//DTD SVG 1.1//EN" "http://www.w3.org/Graphics/SVG/1.1/DTD/svg11.dtd">
<!-- Creator: CorelDRAW X7 -->
<svg xmlns="http://www.w3.org/2000/svg" xml:space="preserve" width="41.219mm" height="7.94mm" version="1.1" style="shape-rendering:geometricPrecision; text-rendering:geometricPrecision; image-rendering:optimizeQuality; fill-rule:evenodd; clip-rule:evenodd"
viewBox="0 0 4122 794"
 xmlns:xlink="http://www.w3.org/1999/xlink">
 <defs>
  <style type="text/css">
   <![CDATA[
    .fil0 {fill:#333333;fill-rule:nonzero}
    .fil2 {fill:url(#id0)}
    .fil3 {fill:url(#id1)}
    .fil1 {fill:url(#id2);fill-rule:nonzero}
   ]]>
  </style>
  <linearGradient id="id0" gradientUnits="userSpaceOnUse" x1="653.13" y1="86.24" x2="141.04" y2="707.76">
   <stop offset="0" style="stop-opacity:1; stop-color:#C065F5"/>
   <stop offset="0.411765" style="stop-opacity:1; stop-color:#9336AB"/>
   <stop offset="1" style="stop-opacity:1; stop-color:#660660"/>
  </linearGradient>
  <linearGradient id="id1" gradientUnits="userSpaceOnUse" x1="509.56" y1="192.89" x2="224.45" y2="601.11">
   <stop offset="0" style="stop-opacity:1; stop-color:#C065F5"/>
   <stop offset="0.301961" style="stop-opacity:1; stop-color:#9336AB"/>
   <stop offset="1" style="stop-opacity:1; stop-color:#660660"/>
  </linearGradient>
  <linearGradient id="id2" gradientUnits="objectBoundingBox" x1="45.1613%" y1="0%" x2="54.8384%" y2="166.532%">
   <stop offset="0" style="stop-opacity:1; stop-color:#CE89F5"/>
   <stop offset="0.6" style="stop-opacity:1; stop-color:#9A469D"/>
   <stop offset="1" style="stop-opacity:1; stop-color:#660245"/>
  </linearGradient>
 </defs>
 <g id="Layer_x0020_1">
  <metadata id="CorelCorpID_0Corel-Layer"/>
  <g id="_2600748127264">
   <path class="fil0" d="M1188 203c15,0 31,3 48,7 17,5 33,12 48,21l0 0 0 -24 43 0 -7 132 -37 0c-3,-32 -13,-56 -28,-72 -15,-17 -35,-25 -62,-25 -19,0 -37,4 -52,13 -15,9 -28,22 -39,37 -10,16 -18,33 -24,52 -6,20 -9,40 -11,60 -1,32 2,61 10,86 8,26 21,46 38,60 17,15 38,22 64,23 22,0 46,-5 70,-16 25,-11 46,-29 66,-54l22 23c-20,25 -40,44 -61,57 -21,13 -41,21 -61,26 -19,4 -37,7 -53,7 -29,0 -55,-6 -78,-16 -23,-10 -43,-24 -59,-43 -16,-18 -28,-39 -36,-63 -8,-25 -11,-51 -10,-79 2,-25 7,-51 17,-76 10,-25 23,-48 41,-68 17,-21 39,-37 64,-49 25,-12 54,-19 87,-19z"/>
   <path id="1" class="fil0" d="M1505 319c21,0 40,5 57,14 17,10 31,25 41,43 10,19 15,42 15,68 0,30 -6,58 -17,83 -12,26 -28,47 -49,62 -21,16 -46,24 -75,24 -26,0 -47,-6 -64,-17 -17,-12 -29,-27 -37,-47 -9,-19 -13,-41 -13,-64 0,-30 6,-58 17,-83 12,-25 28,-45 49,-60 22,-16 47,-23 76,-23zm-9 37c-11,0 -21,5 -29,15 -9,10 -15,24 -20,41 -5,18 -7,37 -7,57 0,11 1,23 2,36 1,12 4,24 7,34 4,11 8,20 14,26 6,7 14,11 23,11 9,0 18,-4 24,-12 7,-7 13,-17 17,-29 4,-11 8,-24 10,-37 2,-13 3,-26 3,-37 1,-10 0,-21 -1,-33 -1,-12 -3,-24 -6,-35 -3,-11 -8,-20 -14,-27 -6,-7 -13,-10 -23,-10z"/>
   <path id="2" class="fil0" d="M1894 613c-21,0 -35,-6 -43,-17 -7,-11 -11,-27 -11,-47 0,-11 1,-24 3,-38 1,-14 3,-28 5,-43 1,-15 3,-28 4,-41 2,-13 3,-24 3,-33 0,-5 -1,-10 -2,-13 -1,-4 -3,-7 -5,-8 -2,-2 -5,-2 -9,-2 -7,0 -14,4 -21,12 -8,8 -15,19 -22,34 -6,14 -12,29 -18,46 -5,17 -9,35 -12,53 -3,17 -5,34 -5,50 0,5 0,12 0,21 1,8 1,15 2,20l-73 0c-1,-8 -1,-14 -2,-17 0,-3 0,-7 0,-10 0,-8 1,-18 2,-28 0,-11 2,-23 3,-35 2,-13 3,-25 5,-38 1,-10 2,-20 3,-29 2,-10 3,-19 4,-27 1,-9 2,-16 3,-22 0,-7 0,-12 0,-15 0,-7 0,-11 -2,-12 -2,-2 -4,-3 -5,-3 -5,0 -9,3 -13,10 -5,6 -10,18 -15,35l-31 -9c2,-8 5,-17 8,-27 4,-10 8,-20 14,-29 6,-10 14,-17 22,-23 9,-6 20,-9 32,-9 8,0 16,1 23,4 7,3 13,9 18,16 4,7 6,18 6,31 0,7 0,13 -1,18 0,4 -1,10 -2,16l1 0c9,-23 19,-40 29,-52 11,-13 22,-21 34,-26 11,-5 22,-7 33,-7 16,0 29,3 39,11 10,7 17,17 22,30 4,13 7,28 7,46 0,13 -1,28 -4,45 -2,16 -4,33 -7,49 -2,17 -3,32 -3,46 0,6 1,10 3,12 1,1 3,2 5,2 4,0 9,-3 13,-9 5,-7 9,-18 14,-35l31 9c-2,8 -5,17 -9,27 -4,10 -10,20 -17,29 -7,9 -16,17 -26,23 -9,6 -21,9 -33,9z"/>
   <path id="3" class="fil0" d="M2238 613c-21,0 -35,-6 -42,-17 -8,-11 -11,-27 -11,-47 0,-11 0,-24 2,-38 1,-14 3,-28 5,-43 1,-15 3,-28 5,-41 1,-13 2,-24 2,-33 0,-5 -1,-10 -2,-13 -1,-4 -3,-7 -5,-8 -2,-2 -5,-2 -9,-2 -7,0 -14,4 -21,12 -8,8 -15,19 -21,34 -7,14 -13,29 -18,46 -6,17 -10,35 -13,53 -3,17 -5,34 -5,50 0,5 0,12 1,21 0,8 0,15 1,20l-73 0c-1,-8 -1,-14 -1,-17 -1,-3 -1,-7 -1,-10 0,-8 1,-18 2,-28 1,-11 2,-23 3,-35 2,-13 3,-25 5,-38 1,-10 2,-20 4,-29 1,-10 2,-19 3,-27 1,-9 2,-16 3,-22 0,-7 1,-12 1,-15 0,-7 -1,-11 -3,-12 -2,-2 -3,-3 -5,-3 -4,0 -9,3 -13,10 -5,6 -9,18 -14,35l-31 -9c1,-8 4,-17 8,-27 3,-10 8,-20 14,-29 6,-10 13,-17 22,-23 8,-6 19,-9 31,-9 9,0 16,1 23,4 8,3 13,9 18,16 4,7 7,18 7,31 0,7 -1,13 -2,18 0,4 -1,10 -2,16l1 0c9,-23 19,-40 29,-52 11,-13 22,-21 34,-26 11,-5 22,-7 33,-7 16,0 29,3 39,11 10,7 17,17 22,30 5,13 7,28 7,46 0,13 -1,28 -3,45 -3,16 -5,33 -7,49 -3,17 -4,32 -4,46 0,6 1,10 3,12 2,1 3,2 5,2 4,0 9,-3 13,-9 5,-7 10,-18 14,-35l31 9c-2,8 -5,17 -9,27 -4,10 -10,20 -17,29 -7,9 -16,17 -25,23 -10,6 -22,9 -34,9z"/>
   <path id="4" class="fil0" d="M2484 319c17,0 32,2 44,7 13,5 23,13 30,23 7,11 11,24 11,41 0,15 -5,28 -14,39 -9,11 -21,19 -36,26 -15,7 -31,12 -49,17 -18,4 -35,7 -51,10 0,21 2,37 7,49 6,11 12,19 20,24 8,4 16,6 24,6 6,0 14,-1 22,-4 9,-2 18,-7 27,-15 9,-8 17,-20 24,-35l32 15c-11,25 -23,43 -36,56 -13,14 -27,23 -41,27 -14,5 -29,8 -44,8 -34,0 -62,-10 -82,-30 -20,-20 -30,-51 -30,-93 0,-18 2,-37 8,-57 6,-20 14,-38 26,-56 11,-17 26,-31 44,-42 18,-11 39,-16 64,-16zm-6 37c-13,0 -23,5 -31,14 -8,9 -14,20 -18,34 -4,13 -7,27 -8,41 20,-4 36,-9 48,-15 12,-7 21,-14 26,-22 6,-8 8,-17 8,-26 0,-9 -3,-16 -9,-20 -5,-4 -10,-6 -16,-6z"/>
   <path id="5" class="fil0" d="M2746 319c17,0 32,3 46,8 14,6 25,14 33,24 8,10 12,22 12,35 0,12 -3,21 -10,28 -7,7 -15,11 -26,11 -13,1 -22,-3 -27,-11 -6,-8 -8,-16 -8,-22 0,-3 0,-7 1,-11 1,-5 3,-9 4,-13 -1,-3 -4,-6 -9,-8 -5,-3 -11,-4 -18,-4 -12,0 -22,4 -29,12 -8,8 -14,18 -18,31 -5,12 -8,25 -10,39 -1,14 -3,26 -3,37 -1,21 1,37 6,49 4,13 10,22 18,27 7,6 15,9 23,10 7,0 15,-1 24,-3 9,-3 18,-8 28,-16 9,-9 18,-22 25,-40l32 16c-10,25 -22,44 -35,58 -13,14 -27,23 -42,29 -15,5 -30,8 -46,8 -33,-1 -59,-11 -80,-31 -20,-20 -30,-50 -30,-92 0,-18 3,-37 8,-57 6,-20 14,-38 26,-56 11,-17 26,-31 43,-42 17,-11 38,-16 62,-16z"/>
   <path id="6" class="fil0" d="M2998 240l-12 85 71 0 -3 39 -71 1c-1,14 -3,28 -5,44 -2,15 -3,30 -5,45 -1,15 -2,28 -3,40 -1,12 -2,21 -2,28 0,4 1,10 2,16 1,5 4,10 7,15 4,4 10,6 18,6 4,0 8,-1 14,-3 6,-1 12,-5 19,-10 6,-5 13,-12 18,-23l29 18c-13,24 -28,42 -47,54 -18,12 -38,18 -59,18 -21,0 -36,-5 -47,-13 -10,-9 -17,-20 -20,-34 -4,-14 -5,-29 -5,-44 1,-13 2,-28 3,-46 1,-17 3,-36 5,-55 2,-19 3,-38 5,-55l-45 0 5 -41c28,0 49,-7 62,-22 13,-15 23,-36 28,-63l38 0z"/>
   <path id="7" class="fil1" d="M3510 212l-2 38c-8,0 -15,1 -21,3 -7,2 -11,6 -15,13 -4,6 -6,17 -6,33l-12 215c0,10 -1,20 -2,30 -1,9 -2,16 -3,21 7,-1 14,-1 23,-1 9,-1 16,-1 19,-1l-2 44 -160 0 2 -38c8,0 16,-1 22,-3 6,-2 10,-6 14,-13 4,-7 6,-18 7,-33l5 -91 -156 2 -5 83c0,10 -1,20 -2,30 -1,9 -1,16 -2,21 6,-1 14,-1 23,-1 9,-1 15,-1 19,-1l-2 44 -161 0 2 -38c9,0 16,-1 22,-3 6,-2 11,-6 14,-13 4,-7 6,-18 7,-33l11 -215c1,-10 2,-20 3,-30 0,-9 1,-16 2,-21 -6,0 -13,1 -23,1 -9,0 -15,0 -19,1l2 -44 160 0 -1 38c-9,0 -16,1 -22,3 -6,2 -11,6 -15,13 -3,6 -6,17 -6,33l-5 87 155 0 5 -81c1,-10 1,-20 2,-30 1,-9 2,-16 3,-21 -6,0 -14,1 -23,1 -9,0 -16,0 -20,1l2 -44 161 0z"/>
   <path id="8" class="fil1" d="M3633 613c-16,0 -29,-4 -39,-11 -10,-7 -17,-17 -22,-30 -4,-13 -7,-28 -7,-46 0,-14 2,-29 4,-46 3,-16 5,-33 7,-49 3,-17 4,-32 4,-45 0,-7 -1,-11 -3,-12 -2,-2 -4,-3 -6,-3 -4,0 -8,3 -13,10 -4,6 -9,18 -14,35l-31 -9c2,-8 5,-17 9,-27 5,-10 10,-20 17,-29 8,-10 16,-17 26,-23 10,-6 21,-9 34,-9 21,0 35,5 42,17 8,11 11,27 11,46 0,12 0,24 -2,38 -1,15 -3,29 -5,44 -2,14 -4,28 -5,41 -2,13 -2,24 -2,32 0,6 0,11 1,14 1,4 3,6 5,8 3,1 6,2 9,2 7,0 14,-4 20,-12 7,-9 14,-20 20,-34 7,-14 13,-30 18,-47 5,-17 9,-34 13,-52 3,-18 4,-35 4,-50 0,-6 0,-13 0,-21 0,-9 0,-15 -1,-20l73 0c0,8 1,13 1,17 0,3 0,6 0,10 0,8 0,17 -1,29 -1,11 -2,23 -4,35 -1,13 -3,26 -5,39 -1,10 -2,19 -4,29 -1,9 -2,18 -3,26 -1,8 -2,15 -3,21 0,7 -1,11 -1,15 0,6 1,10 3,12 2,1 3,2 5,2 4,0 9,-3 13,-9 5,-7 9,-18 14,-35l31 9c-2,8 -4,17 -7,27 -4,10 -9,20 -15,29 -6,9 -13,17 -22,23 -8,6 -19,9 -31,9 -12,0 -23,-4 -33,-11 -10,-7 -15,-21 -15,-40 0,-8 1,-14 2,-20 0,-5 1,-11 1,-17l0 0c-9,22 -18,40 -29,53 -10,13 -20,22 -31,27 -11,5 -22,8 -33,8z"/>
   <path id="9" class="fil1" d="M3978 181c-1,11 -3,24 -4,39 -2,15 -3,30 -4,44 -2,14 -3,25 -3,32 -1,4 -1,12 -2,22 -1,10 -2,22 -4,34 -1,12 -3,23 -5,33l1 0c6,-12 13,-23 20,-31 7,-8 15,-15 22,-20 8,-5 15,-9 22,-11 7,-3 13,-4 20,-4 19,0 34,5 46,15 12,10 21,23 26,40 5,16 8,34 8,52 0,26 -3,49 -8,72 -6,22 -15,42 -27,60 -12,17 -28,30 -47,40 -19,10 -43,15 -71,15 -6,0 -14,-1 -25,-2 -10,-1 -21,-2 -33,-4 -11,-3 -22,-6 -32,-9 1,-30 2,-58 3,-82 2,-25 3,-49 4,-72 1,-23 3,-47 4,-71 2,-25 3,-52 5,-82 1,-6 1,-14 2,-24 1,-10 2,-19 3,-28 -6,1 -13,1 -21,1 -8,0 -14,1 -18,1l2 -43c18,0 32,-1 44,-2 11,-2 21,-5 28,-7 7,-3 11,-5 14,-8l30 0zm40 190c-7,0 -14,3 -21,10 -7,7 -13,17 -19,29 -5,12 -10,27 -15,44 -4,17 -7,35 -10,55 -3,20 -4,40 -4,62 3,1 7,2 13,3 6,1 10,2 14,2 13,0 23,-4 31,-11 8,-7 15,-16 20,-27 5,-12 9,-24 11,-38 2,-14 4,-27 5,-41 1,-13 1,-25 1,-35 0,-21 -3,-35 -8,-42 -6,-8 -12,-11 -18,-11z"/>
   <g>
    <path class="fil2" d="M54 397c0,-189 153,-343 343,-343 190,0 344,154 344,343 0,189 -154,343 -344,343 -190,0 -343,-154 -343,-343zm343 -397c-220,0 -398,178 -398,397 0,219 178,397 398,397 220,0 398,-178 398,-397 0,-219 -178,-397 -398,-397z"/>
    <path class="fil3" d="M327 253l0 288c-15,8 -31,12 -50,12 -72,0 -118,-59 -118,-157 0,-96 50,-155 120,-155 18,0 34,5 48,12zm1 358l75 0 0 -47 0 -15 0 -128 174 0 0 190 76 0 0 -428 -76 0 0 172 -174 0 0 -172 -75 0c-16,-5 -33,-8 -51,-8 -108,0 -196,83 -196,223 0,142 85,221 193,221 19,0 37,-3 54,-8z"/>
   </g>
  </g>
 </g>
</svg>
