<?xml version="1.0" encoding="UTF-8"?>
<!DOCTYPE svg PUBLIC "-//W3C//DTD SVG 1.1//EN" "http://www.w3.org/Graphics/SVG/1.1/DTD/svg11.dtd">
<!-- Creator: CorelDRAW X7 -->
<svg xmlns="http://www.w3.org/2000/svg" xml:space="preserve" width="8.533mm" height="8.533mm" version="1.1" style="shape-rendering:geometricPrecision; text-rendering:geometricPrecision; image-rendering:optimizeQuality; fill-rule:evenodd; clip-rule:evenodd"
viewBox="0 0 853 853"
 xmlns:xlink="http://www.w3.org/1999/xlink">
 <defs>
  <style type="text/css">
   <![CDATA[
    .fil0 {fill:black}
   ]]>
  </style>
 </defs>
 <g id="Layer_x0020_1">
  <metadata id="CorelCorpID_0Corel-Layer"/>
  <g id="add-post.svg">
   <path class="fil0" d="M685 0c16,0 29,13 29,30l0 109 110 0c16,0 29,13 29,30 0,16 -13,29 -29,29l-110 0 0 110c0,16 -13,29 -29,29 -17,0 -30,-13 -30,-29l0 -110 -109 0c-17,0 -30,-13 -30,-29 0,-17 13,-30 30,-30l109 0 0 -109c0,-17 13,-30 30,-30z"/>
   <path class="fil0" d="M427 0l-3 0c-91,0 -163,0 -219,8 -57,7 -103,23 -138,59 -36,35 -52,81 -59,138 -8,56 -8,128 -8,219l0 5c0,92 0,163 8,219 7,58 23,103 59,138 35,36 81,52 138,60 56,7 128,7 219,7l5 0c92,0 163,0 219,-7 58,-8 103,-24 138,-60 36,-35 52,-80 60,-138 7,-56 7,-127 7,-219l0 -2c0,-17 -13,-30 -29,-30 -17,0 -30,13 -30,30 0,94 0,162 -7,213 -1,2 -1,4 -1,6l-110 -99c-52,-46 -129,-51 -185,-11l-12 9c-20,13 -47,11 -64,-6l-170 -170c-45,-45 -117,-48 -165,-6l-20 18c0,-71 1,-125 7,-168 6,-51 19,-81 42,-104 23,-23 53,-36 104,-42 51,-7 119,-7 214,-7 16,0 29,-14 29,-30 0,-17 -13,-30 -29,-30zm-360 640c6,51 19,82 42,104 23,23 53,36 104,43 51,7 119,7 214,7 94,0 162,0 213,-7 51,-7 82,-20 104,-43 10,-9 18,-20 24,-34 -1,-1 -3,-2 -4,-3l-128 -115c-31,-28 -77,-31 -111,-7l-12 8c-43,31 -102,26 -140,-12l-170 -170c-23,-23 -60,-24 -84,-3l-59 52c0,77 0,135 7,180z"/>
  </g>
 </g>
</svg>
