<?xml version="1.0" encoding="UTF-8"?>
<!DOCTYPE svg PUBLIC "-//W3C//DTD SVG 1.1//EN" "http://www.w3.org/Graphics/SVG/1.1/DTD/svg11.dtd">
<!-- Creator: CorelDRAW X7 -->
<svg xmlns="http://www.w3.org/2000/svg" xml:space="preserve" width="5.159mm" height="5.689mm" version="1.1" style="shape-rendering:geometricPrecision; text-rendering:geometricPrecision; image-rendering:optimizeQuality; fill-rule:evenodd; clip-rule:evenodd"
viewBox="0 0 516 569"
 xmlns:xlink="http://www.w3.org/1999/xlink">
 <defs>
  <style type="text/css">
   <![CDATA[
    .fil0 {fill:black}
   ]]>
  </style>
 </defs>
 <g id="Layer_x0020_1">
  <metadata id="CorelCorpID_0Corel-Layer"/>
  <g id="bookmark.svg">
   <path class="fil0" d="M179 106c-11,0 -20,9 -20,20 0,11 9,20 20,20l158 0c11,0 20,-9 20,-20 0,-11 -9,-20 -20,-20l-158 0z"/>
   <path class="fil0" d="M256 0c-54,0 -98,0 -131,5 -35,4 -63,14 -84,36 -22,22 -32,50 -36,85 -5,34 -5,78 -5,133l0 135c0,40 0,71 3,95 2,24 7,45 23,59 12,11 28,19 44,21 21,2 41,-8 60,-22 19,-13 43,-34 72,-60l1 -1c14,-12 24,-21 31,-26 8,-6 12,-8 16,-9 5,-1 11,-1 16,0 4,1 8,3 16,9 7,5 17,14 30,26l1 1c30,26 54,47 73,60 19,14 39,24 59,22 17,-2 33,-10 45,-21 15,-14 21,-35 23,-59 3,-24 3,-55 3,-95l0 -135c0,-55 0,-99 -5,-133 -4,-35 -14,-63 -36,-85 -21,-22 -49,-32 -84,-36 -33,-5 -77,-5 -132,-5l-3 0zm-187 69c13,-13 31,-21 61,-25 31,-4 71,-4 128,-4 57,0 97,0 128,4 30,4 48,12 61,25 13,13 21,32 25,62 4,31 4,72 4,130l0 132c0,41 0,71 -2,92 -2,22 -7,30 -11,34 -6,6 -14,9 -22,10 -5,1 -14,-1 -32,-14 -17,-12 -39,-32 -70,-59l-1 -1c-13,-11 -23,-20 -33,-27 -10,-8 -20,-13 -31,-15 -11,-3 -21,-3 -32,0 -11,2 -21,7 -31,15 -10,7 -20,16 -33,27l-1 1c-31,27 -53,47 -70,59 -18,13 -27,15 -32,14 -8,-1 -16,-4 -22,-10 -4,-4 -9,-12 -11,-34 -2,-21 -2,-51 -2,-92l0 -132c0,-58 0,-99 4,-130 4,-30 12,-49 25,-62z"/>
  </g>
 </g>
</svg>
