<?xml version="1.0" encoding="UTF-8"?>
<!DOCTYPE svg PUBLIC "-//W3C//DTD SVG 1.1//EN" "http://www.w3.org/Graphics/SVG/1.1/DTD/svg11.dtd">
<!-- Creator: CorelDRAW X7 -->
<svg xmlns="http://www.w3.org/2000/svg" xml:space="preserve" width="8.533mm" height="8.533mm" version="1.1" style="shape-rendering:geometricPrecision; text-rendering:geometricPrecision; image-rendering:optimizeQuality; fill-rule:evenodd; clip-rule:evenodd"
viewBox="0 0 853 853"
 xmlns:xlink="http://www.w3.org/1999/xlink">
 <defs>
  <style type="text/css">
   <![CDATA[
    .fil0 {fill:#877EFF}
   ]]>
  </style>
 </defs>
 <g id="Layer_x0020_1">
  <metadata id="CorelCorpID_0Corel-Layer"/>
  <path id="edit.svg" class="fil0" d="M424 0l62 0c17,0 30,13 30,30 0,16 -13,30 -30,30l-59 0c-95,0 -163,0 -214,7 -51,6 -81,19 -104,42 -23,23 -36,53 -42,104 -7,51 -7,119 -7,214 0,94 0,162 7,213 6,51 19,82 42,104 23,23 53,36 104,43 51,7 119,7 214,7 94,0 162,0 213,-7 51,-7 82,-20 104,-43 23,-22 36,-53 43,-104 7,-51 7,-119 7,-213l0 -60c0,-16 13,-30 30,-30 16,0 29,14 29,30l0 62c0,92 0,163 -7,219 -8,58 -24,103 -60,138 -35,36 -80,52 -138,60 -56,7 -127,7 -219,7l-5 0c-91,0 -163,0 -219,-7 -57,-8 -103,-24 -138,-60 -36,-35 -52,-80 -59,-138 -8,-56 -8,-127 -8,-219l0 -5c0,-91 0,-163 8,-219 7,-57 23,-103 59,-138 35,-36 81,-52 138,-59 56,-8 128,-8 219,-8zm192 41c54,-55 142,-55 197,0 54,54 54,142 0,196l-264 264c-15,15 -24,24 -35,32 -12,10 -25,18 -39,24 -11,6 -24,10 -44,17l-115 38c-21,7 -45,2 -61,-14 -15,-16 -21,-40 -14,-61l39 -115c6,-20 10,-32 16,-44 7,-14 15,-27 24,-39 8,-10 17,-20 32,-34l264 -264zm154 42c-31,-31 -81,-31 -112,0l-15 15c1,4 2,8 4,13 6,17 16,38 37,58 20,21 42,32 58,37 5,2 10,3 14,4l14 -15c32,-31 32,-81 0,-112zm-61 174c-21,-9 -45,-23 -67,-45 -23,-23 -37,-47 -46,-67l-200 200c-17,17 -23,23 -29,30 -7,9 -13,19 -17,29 -4,8 -7,16 -15,39l-17 51 41 41 52 -17c22,-8 31,-11 39,-14 10,-5 19,-11 28,-18 7,-5 13,-12 30,-28l201 -201z"/>
 </g>
</svg>
