<?xml version="1.0" encoding="UTF-8"?>
<!DOCTYPE svg PUBLIC "-//W3C//DTD SVG 1.1//EN" "http://www.w3.org/Graphics/SVG/1.1/DTD/svg11.dtd">
<!-- Creator: CorelDRAW X7 -->
<svg xmlns="http://www.w3.org/2000/svg" xml:space="preserve" width="5.689mm" height="5.689mm" version="1.1" style="shape-rendering:geometricPrecision; text-rendering:geometricPrecision; image-rendering:optimizeQuality; fill-rule:evenodd; clip-rule:evenodd"
viewBox="0 0 569 569"
 xmlns:xlink="http://www.w3.org/1999/xlink">
 <defs>
  <style type="text/css">
   <![CDATA[
    .fil0 {fill:black}
   ]]>
  </style>
 </defs>
 <g id="Layer_x0020_1">
  <metadata id="CorelCorpID_0Corel-Layer"/>
  <g id="gallery-add.svg">
   <path class="fil0" d="M456 0c11,0 20,9 20,20l0 73 73 0c11,0 20,9 20,19 0,11 -9,20 -20,20l-73 0 0 73c0,11 -9,20 -20,20 -11,0 -19,-9 -19,-20l0 -73 -73 0c-11,0 -20,-9 -20,-20 0,-10 9,-19 20,-19l73 0 0 -73c0,-11 8,-20 19,-20z"/>
   <path class="fil0" d="M284 0l-1 0c-61,0 -109,0 -146,5 -39,5 -69,16 -92,40 -24,23 -35,53 -40,92 -5,37 -5,85 -5,146l0 3c0,61 0,109 5,146 5,38 16,69 40,92 23,24 53,35 92,40 37,5 85,5 146,5l3 0c61,0 109,0 146,-5 38,-5 69,-16 92,-40 24,-23 35,-54 40,-92 5,-37 5,-85 5,-146l0 -2c0,-11 -9,-19 -20,-19 -11,0 -20,8 -20,19 0,63 0,109 -4,143 -1,1 -1,3 -1,4l-73 -66c-35,-31 -86,-34 -124,-8l-8 6c-13,9 -31,8 -42,-4l-114 -113c-30,-30 -78,-32 -110,-4l-13 12c0,-47 1,-84 4,-112 5,-34 14,-54 29,-69 15,-15 35,-24 69,-29 34,-4 80,-4 142,-4 11,0 20,-9 20,-20 0,-11 -9,-20 -20,-20zm-240 427c5,34 14,54 29,69 15,15 35,24 69,29 34,4 80,4 142,4 63,0 109,0 143,-4 34,-5 54,-14 69,-29 7,-6 12,-14 16,-23 -1,0 -2,-1 -3,-2l-85 -77c-21,-18 -51,-20 -74,-4l-8 6c-29,20 -68,16 -93,-9l-114 -113c-15,-15 -39,-16 -56,-2l-39 35c0,51 0,90 4,120z"/>
  </g>
 </g>
</svg>
