<?xml version="1.0" encoding="UTF-8"?>
<!DOCTYPE svg PUBLIC "-//W3C//DTD SVG 1.1//EN" "http://www.w3.org/Graphics/SVG/1.1/DTD/svg11.dtd">
<!-- Creator: CorelDRAW X7 -->
<svg xmlns="http://www.w3.org/2000/svg" xml:space="preserve" width="5.689mm" height="5.689mm" version="1.1" style="shape-rendering:geometricPrecision; text-rendering:geometricPrecision; image-rendering:optimizeQuality; fill-rule:evenodd; clip-rule:evenodd"
viewBox="0 0 569 569"
 xmlns:xlink="http://www.w3.org/1999/xlink">
 <defs>
  <style type="text/css">
   <![CDATA[
    .fil0 {fill:black}
   ]]>
  </style>
 </defs>
 <g id="Layer_x0020_1">
  <metadata id="CorelCorpID_0Corel-Layer"/>
  <g id="home.svg">
   <path class="fil0" d="M205 423c-11,0 -20,9 -20,20 0,11 9,20 20,20l159 0c11,0 20,-9 20,-20 0,-11 -9,-20 -20,-20l-159 0z"/>
   <path class="fil0" d="M284 0c-18,0 -35,5 -54,14 -18,9 -38,22 -64,38l-55 34c-24,15 -44,27 -59,39 -15,11 -27,24 -36,39 -8,16 -12,33 -14,53 -2,19 -2,42 -2,72l0 43c0,50 0,90 4,121 4,32 13,57 33,78 19,20 45,29 76,34 30,4 68,4 117,4l109 0c48,0 87,0 117,-4 31,-5 57,-14 76,-34 20,-21 29,-46 33,-78 4,-31 4,-71 4,-121l0 -43c0,-30 0,-53 -2,-72 -2,-20 -6,-37 -14,-53 -9,-15 -21,-28 -36,-39 -16,-12 -35,-24 -59,-39l-55 -34c-26,-16 -46,-29 -64,-38 -19,-9 -36,-14 -55,-14zm-98 86c27,-17 46,-28 62,-36 15,-7 26,-10 36,-10 11,0 22,3 37,10 16,8 35,19 62,36l53 33c25,16 43,27 56,37 13,10 21,18 26,27 5,10 8,21 10,37 1,18 1,39 1,70l0 40c0,52 0,89 -4,118 -3,27 -10,43 -21,55 -11,12 -27,19 -53,22 -27,4 -63,4 -114,4l-105 0c-51,0 -87,0 -114,-4 -26,-3 -42,-10 -53,-22 -11,-12 -18,-28 -22,-55 -3,-29 -3,-66 -3,-118l0 -40c0,-31 0,-52 1,-70 2,-16 5,-27 10,-37 5,-9 13,-17 26,-27 13,-10 31,-21 56,-37l53 -33z"/>
  </g>
 </g>
</svg>
