<?xml version="1.0" encoding="UTF-8"?>
<!DOCTYPE svg PUBLIC "-//W3C//DTD SVG 1.1//EN" "http://www.w3.org/Graphics/SVG/1.1/DTD/svg11.dtd">
<!-- Creator: CorelDRAW X7 -->
<svg xmlns="http://www.w3.org/2000/svg" xml:space="preserve" width="5.16mm" height="5.689mm" version="1.1" style="shape-rendering:geometricPrecision; text-rendering:geometricPrecision; image-rendering:optimizeQuality; fill-rule:evenodd; clip-rule:evenodd"
viewBox="0 0 516 569"
 xmlns:xlink="http://www.w3.org/1999/xlink">
 <defs>
  <style type="text/css">
   <![CDATA[
    .fil0 {fill:black}
   ]]>
  </style>
 </defs>
 <g id="Layer_x0020_1">
  <metadata id="CorelCorpID_0Corel-Layer"/>
  <g id="logout.svg">
   <path class="fil0" d="M85 298c-8,-7 -8,-20 0,-28l53 -52c8,-8 20,-8 28,0 8,7 8,20 0,28l-19 19 190 0c11,0 20,8 20,19 0,11 -9,20 -20,20l-190 0 19 19c8,8 8,21 0,28 -8,8 -20,8 -28,0l-53 -53z"/>
   <path class="fil0" d="M309 0l30 0c36,0 65,0 88,3 24,3 44,10 60,26 16,16 23,36 26,60 3,23 3,52 3,88l0 215c0,36 0,65 -3,88 -3,24 -10,44 -26,60 -16,16 -36,23 -60,26 -23,3 -52,3 -88,3l-30 0c-36,0 -65,0 -88,-3 -24,-3 -44,-10 -60,-26 -10,-11 -17,-23 -21,-37 -25,0 -46,-1 -63,-3 -20,-3 -38,-8 -52,-22 -14,-14 -20,-32 -22,-52 -3,-20 -3,-44 -3,-74l0 -135c0,-30 0,-55 3,-74 2,-20 8,-38 22,-52 14,-14 32,-20 52,-22 17,-3 38,-3 63,-3 4,-14 11,-26 21,-37 16,-16 36,-23 60,-26 23,-3 52,-3 88,-3zm-177 417c0,17 1,32 2,46 -22,0 -39,0 -52,-2 -16,-2 -23,-6 -29,-12 -5,-5 -9,-13 -11,-28 -2,-17 -2,-39 -2,-70l0 -133c0,-31 0,-53 2,-70 2,-15 6,-23 11,-29 6,-5 13,-9 29,-11 13,-2 30,-2 52,-2 -1,14 -2,29 -2,46 0,11 9,20 20,20 11,0 20,-9 20,-20 0,-29 1,-49 4,-65 3,-15 7,-23 13,-30 8,-7 18,-12 37,-15 20,-2 47,-2 85,-2l26 0c38,0 65,0 85,2 19,3 30,8 37,15 7,7 12,18 15,37 2,20 2,47 2,85l0 211c0,38 0,65 -2,85 -3,19 -8,29 -15,37 -7,7 -18,12 -37,14 -20,3 -47,3 -85,3l-26 0c-38,0 -65,0 -85,-3 -19,-2 -29,-7 -37,-14 -6,-7 -10,-15 -13,-30 -3,-16 -4,-36 -4,-65 0,-11 -9,-20 -20,-20 -11,0 -20,9 -20,20z"/>
  </g>
 </g>
</svg>
