<?xml version="1.0" encoding="UTF-8"?>
<!DOCTYPE svg PUBLIC "-//W3C//DTD SVG 1.1//EN" "http://www.w3.org/Graphics/SVG/1.1/DTD/svg11.dtd">
<!-- Creator: CorelDRAW X7 -->
<svg xmlns="http://www.w3.org/2000/svg" xml:space="preserve" width="5.424mm" height="5.424mm" version="1.1" style="shape-rendering:geometricPrecision; text-rendering:geometricPrecision; image-rendering:optimizeQuality; fill-rule:evenodd; clip-rule:evenodd"
viewBox="0 0 542 542"
 xmlns:xlink="http://www.w3.org/1999/xlink">
 <defs>
  <style type="text/css">
   <![CDATA[
    .fil0 {fill:black}
   ]]>
  </style>
 </defs>
 <g id="Layer_x0020_1">
  <metadata id="CorelCorpID_0Corel-Layer"/>
  <g id="people.svg">
   <path class="fil0" d="M205 0c-69,0 -126,56 -126,126 0,69 57,125 126,125 69,0 126,-56 126,-125 0,-70 -57,-126 -126,-126zm-86 126c0,-48 39,-86 86,-86 48,0 86,38 86,86 0,47 -38,86 -86,86 -47,0 -86,-39 -86,-86z"/>
   <path class="fil0" d="M364 26c-11,0 -20,9 -20,20 0,11 9,20 20,20 33,0 59,27 59,60 0,33 -26,59 -59,59 -11,0 -20,9 -20,20 0,11 9,20 20,20 55,0 99,-45 99,-99 0,-55 -44,-100 -99,-100z"/>
   <path class="fil0" d="M64 325c37,-21 87,-34 141,-34 54,0 104,13 141,34 36,20 64,52 64,92 0,39 -28,71 -64,92 -37,21 -87,33 -141,33 -54,0 -104,-12 -141,-33 -36,-21 -64,-53 -64,-92 0,-40 28,-72 64,-92zm20 34c-31,18 -44,39 -44,58 0,19 13,40 44,57 30,17 73,29 121,29 48,0 91,-12 121,-29 31,-17 44,-38 44,-57 0,-19 -13,-40 -44,-58 -30,-17 -73,-28 -121,-28 -48,0 -91,11 -121,28z"/>
   <path class="fil0" d="M447 318c-10,-2 -21,4 -23,15 -3,11 4,21 15,24 21,4 38,12 49,21 11,9 15,18 15,25 0,7 -3,15 -12,23 -9,8 -23,16 -40,21 -11,3 -17,14 -14,25 4,10 15,16 25,13 22,-6 41,-16 56,-30 14,-13 24,-31 24,-52 0,-22 -12,-42 -29,-55 -17,-14 -40,-24 -66,-30z"/>
  </g>
 </g>
</svg>
