<?xml version="1.0" encoding="UTF-8"?>
<!DOCTYPE svg PUBLIC "-//W3C//DTD SVG 1.1//EN" "http://www.w3.org/Graphics/SVG/1.1/DTD/svg11.dtd">
<!-- Creator: CorelDRAW X7 -->
<svg xmlns="http://www.w3.org/2000/svg" xml:space="preserve" width="4.299mm" height="4.74mm" version="1.1" style="shape-rendering:geometricPrecision; text-rendering:geometricPrecision; image-rendering:optimizeQuality; fill-rule:evenodd; clip-rule:evenodd"
viewBox="0 0 430 474"
 xmlns:xlink="http://www.w3.org/1999/xlink">
 <defs>
  <style type="text/css">
   <![CDATA[
    .fil0 {fill:black}
   ]]>
  </style>
 </defs>
 <g id="Layer_x0020_1">
  <metadata id="CorelCorpID_0Corel-Layer"/>
  <g id="save.svg">
   <path class="fil0" d="M149 88c-9,0 -17,8 -17,17 0,9 8,16 17,16l132 0c9,0 17,-7 17,-16 0,-9 -8,-17 -17,-17l-132 0z"/>
   <path class="fil0" d="M214 0c-46,0 -82,0 -110,4 -29,4 -52,12 -70,30 -18,19 -26,42 -30,71 -4,28 -4,65 -4,111l0 112c0,33 0,60 2,80 2,19 7,37 19,49 11,9 24,15 38,17 17,2 33,-7 49,-18 16,-11 36,-29 61,-51l1 0c11,-10 19,-17 25,-22 6,-5 10,-6 14,-7 4,-1 8,-1 12,0 4,1 7,2 14,7 6,5 14,12 25,22l1 0c25,22 45,40 61,51 16,11 32,20 49,18 14,-2 27,-8 37,-17 13,-12 18,-30 20,-49 2,-20 2,-47 2,-80l0 -112c0,-46 0,-83 -4,-111 -4,-29 -12,-52 -30,-71 -18,-18 -41,-26 -70,-30 -28,-4 -64,-4 -110,-4l-2 0 0 0zm-157 58c11,-12 26,-18 51,-21 26,-4 60,-4 107,-4 47,0 81,0 107,4 25,3 40,9 51,21 11,11 17,26 20,51 4,26 4,60 4,108l0 110c0,35 0,59 -2,77 -2,18 -6,25 -9,28 -5,5 -12,8 -19,9 -4,0 -11,-1 -26,-12 -15,-10 -33,-26 -59,-49l0 -1c-11,-9 -20,-17 -28,-23 -8,-6 -16,-10 -26,-12 -9,-2 -17,-2 -26,0 -10,2 -18,6 -26,12 -8,6 -17,14 -28,23l0 1c-26,23 -44,39 -59,49 -15,11 -22,12 -27,12 -6,-1 -13,-4 -18,-9 -3,-3 -7,-10 -9,-28 -2,-18 -2,-42 -2,-77l0 -110c0,-48 0,-82 4,-108 3,-25 9,-40 20,-51l0 0z"/>
  </g>
 </g>
</svg>
