<?xml version="1.0" encoding="UTF-8"?>
<!DOCTYPE svg PUBLIC "-//W3C//DTD SVG 1.1//EN" "http://www.w3.org/Graphics/SVG/1.1/DTD/svg11.dtd">
<!-- Creator: CorelDRAW X7 -->
<svg xmlns="http://www.w3.org/2000/svg" xml:space="preserve" width="5.689mm" height="5.689mm" version="1.1" style="shape-rendering:geometricPrecision; text-rendering:geometricPrecision; image-rendering:optimizeQuality; fill-rule:evenodd; clip-rule:evenodd"
viewBox="0 0 569 569"
 xmlns:xlink="http://www.w3.org/1999/xlink">
 <defs>
  <style type="text/css">
   <![CDATA[
    .fil0 {fill:black}
   ]]>
  </style>
 </defs>
 <g id="Layer_x0020_1">
  <metadata id="CorelCorpID_0Corel-Layer"/>
  <path id="wallpaper.svg" class="fil0" d="M257 0l55 0c37,0 66,0 89,3 23,3 44,10 59,26 11,11 18,23 22,37 5,0 10,1 14,1 37,6 66,35 72,72 1,6 1,14 1,25 0,0 0,1 0,1l0 239c0,0 0,1 0,1 0,11 0,18 -1,25 -6,37 -35,66 -72,72 -4,0 -9,1 -14,1 -4,14 -11,26 -22,37 -15,16 -36,23 -59,26 -23,3 -52,3 -89,3l-55 0c-37,0 -66,0 -89,-3 -24,-3 -44,-10 -60,-26 -10,-11 -17,-23 -21,-37 -5,0 -10,-1 -14,-1 -37,-6 -66,-35 -72,-72 -1,-7 -1,-14 -1,-25 0,0 0,-1 0,-1l0 -239c0,0 0,-1 0,-1 0,-11 0,-19 1,-25 6,-37 35,-66 72,-72 4,0 9,-1 14,-1 4,-14 11,-26 21,-37 16,-16 36,-23 60,-26 23,-3 52,-3 89,-3zm-176 106c-1,0 -2,0 -2,0 -20,4 -36,19 -39,39 0,3 0,7 0,20l0 239c0,13 0,17 0,20 3,20 19,35 39,38 0,1 1,1 2,1 -2,-20 -2,-44 -2,-71l0 -33c0,0 0,0 0,0l0 -182c0,-27 0,-51 2,-71zm38 261l0 23c0,38 0,65 3,85 2,19 7,29 15,37 7,7 17,12 37,14 20,3 46,3 84,3l53 0c38,0 64,0 84,-3 20,-2 30,-7 37,-14 4,-4 8,-9 10,-16l-50 -53c-13,-14 -31,-15 -45,-3l-6 5c-24,20 -58,16 -78,-8l-83 -98c-10,-11 -23,-11 -32,-1l-29 29zm330 79l-28 -30c-27,-29 -69,-32 -100,-7l-5 5c-7,6 -16,5 -23,-2l-83 -99c-24,-28 -65,-30 -91,-3l0 0 0 -131c0,-38 0,-65 3,-85 2,-19 7,-30 15,-37 7,-7 17,-12 37,-15 20,-2 46,-2 84,-2l53 0c38,0 64,0 84,2 20,3 30,8 37,15 8,7 12,18 15,37 3,20 3,47 3,85l0 211c0,22 0,40 -1,56zm39 17c1,0 2,0 2,-1 20,-3 35,-18 39,-38 0,-3 0,-7 0,-20l0 -239c0,-13 0,-17 0,-20 -4,-20 -19,-35 -39,-39 0,0 -1,0 -2,0 2,20 2,44 2,71l0 215c0,27 0,51 -2,71zm-137 -344c-11,0 -20,9 -20,20 0,11 9,20 20,20 11,0 19,-9 19,-20 0,-11 -8,-20 -19,-20zm-60 20c0,-33 27,-60 60,-60 32,0 59,27 59,60 0,33 -27,59 -59,59 -33,0 -60,-26 -60,-59z"/>
 </g>
</svg>
